<mxfile host="app.diagrams.net" modified="2023-04-10T16:03:06.864Z" agent="Mozilla/5.0 (Windows NT 10.0; Win64; x64) AppleWebKit/537.36 (KHTML, like Gecko) Chrome/112.0.0.0 Safari/537.36 Edg/112.0.1722.34" etag="eu8HIyUabNxpFVVsfq_6" version="21.1.4" type="github">
  <diagram name="Page-1" id="52a04d89-c75d-2922-d76d-85b35f80e030">
    <mxGraphModel dx="1103" dy="670" grid="0" gridSize="10" guides="1" tooltips="1" connect="1" arrows="1" fold="1" page="1" pageScale="1" pageWidth="1100" pageHeight="850" background="none" math="0" shadow="0">
      <root>
        <mxCell id="0" />
        <mxCell id="1" parent="0" />
        <mxCell id="21ea969265ad0168-30" value="AC" style="html=1;rounded=0;shadow=0;comic=0;labelBackgroundColor=none;strokeWidth=2;fontFamily=Verdana;fontSize=14;align=center;shape=mxgraph.ios7ui.horLines;fontStyle=1" parent="1" vertex="1">
          <mxGeometry x="930" y="62.5" width="80" height="35" as="geometry" />
        </mxCell>
        <mxCell id="17472293e6e8944d-29" value="Output" style="whiteSpace=wrap;html=1;rounded=0;shadow=0;comic=0;labelBackgroundColor=none;strokeWidth=1;fontFamily=Verdana;fontSize=14;align=center;fontStyle=1" parent="1" vertex="1">
          <mxGeometry x="840" y="630" width="120" height="50" as="geometry" />
        </mxCell>
        <mxCell id="iRvovPeUkQMw14SYtJQM-7" value="" style="edgeStyle=orthogonalEdgeStyle;rounded=0;orthogonalLoop=1;jettySize=auto;html=1;fontStyle=1;fontSize=14;" edge="1" parent="1" source="17472293e6e8944d-30" target="iRvovPeUkQMw14SYtJQM-2">
          <mxGeometry relative="1" as="geometry" />
        </mxCell>
        <mxCell id="17472293e6e8944d-30" value="光伏电池" style="whiteSpace=wrap;html=1;rounded=0;shadow=0;comic=0;labelBackgroundColor=none;strokeWidth=1;fontFamily=Verdana;fontSize=14;align=center;fontStyle=1" parent="1" vertex="1">
          <mxGeometry x="50" y="55" width="120" height="50" as="geometry" />
        </mxCell>
        <mxCell id="1fdf3b25b50cf41e-1" value="MTTP电路" style="swimlane;html=1;fontStyle=1;childLayout=stackLayout;horizontal=1;startSize=26;fillColor=#e0e0e0;horizontalStack=0;resizeParent=1;resizeLast=0;collapsible=1;marginBottom=0;swimlaneFillColor=#ffffff;align=center;rounded=1;shadow=0;comic=0;labelBackgroundColor=none;strokeWidth=1;fontFamily=Verdana;fontSize=14;" parent="1" vertex="1">
          <mxGeometry x="140" y="640" width="140" height="52" as="geometry" />
        </mxCell>
        <mxCell id="1fdf3b25b50cf41e-2" value="Row 1" style="text;html=1;strokeColor=none;fillColor=none;spacingLeft=4;spacingRight=4;whiteSpace=wrap;overflow=hidden;rotatable=0;points=[[0,0.5],[1,0.5]];portConstraint=eastwest;align=center;fontStyle=1;fontSize=14;" parent="1fdf3b25b50cf41e-1" vertex="1">
          <mxGeometry y="26" width="140" height="26" as="geometry" />
        </mxCell>
        <mxCell id="iRvovPeUkQMw14SYtJQM-4" value="" style="edgeStyle=orthogonalEdgeStyle;rounded=0;orthogonalLoop=1;jettySize=auto;html=1;fontStyle=1;fontSize=14;" edge="1" parent="1" source="iRvovPeUkQMw14SYtJQM-2" target="iRvovPeUkQMw14SYtJQM-3">
          <mxGeometry relative="1" as="geometry" />
        </mxCell>
        <mxCell id="iRvovPeUkQMw14SYtJQM-2" value="MPPT电路" style="rounded=1;whiteSpace=wrap;html=1;fontStyle=1;fontSize=14;" vertex="1" parent="1">
          <mxGeometry x="210" y="50" width="120" height="60" as="geometry" />
        </mxCell>
        <mxCell id="iRvovPeUkQMw14SYtJQM-6" value="" style="edgeStyle=orthogonalEdgeStyle;rounded=0;orthogonalLoop=1;jettySize=auto;html=1;fontStyle=1;fontSize=14;" edge="1" parent="1" source="iRvovPeUkQMw14SYtJQM-3" target="iRvovPeUkQMw14SYtJQM-5">
          <mxGeometry relative="1" as="geometry" />
        </mxCell>
        <mxCell id="iRvovPeUkQMw14SYtJQM-3" value="LLC" style="whiteSpace=wrap;html=1;rounded=1;fontStyle=1;fontSize=14;" vertex="1" parent="1">
          <mxGeometry x="425" y="50" width="120" height="60" as="geometry" />
        </mxCell>
        <mxCell id="iRvovPeUkQMw14SYtJQM-5" value="全桥逆变" style="whiteSpace=wrap;html=1;rounded=1;fontStyle=1;fontSize=14;" vertex="1" parent="1">
          <mxGeometry x="630" y="50" width="120" height="60" as="geometry" />
        </mxCell>
        <mxCell id="iRvovPeUkQMw14SYtJQM-8" value="" style="endArrow=none;html=1;rounded=0;fontStyle=1;fontSize=14;" edge="1" parent="1">
          <mxGeometry width="50" height="50" relative="1" as="geometry">
            <mxPoint x="750" y="100" as="sourcePoint" />
            <mxPoint x="810" y="100" as="targetPoint" />
          </mxGeometry>
        </mxCell>
        <mxCell id="iRvovPeUkQMw14SYtJQM-9" value="" style="endArrow=none;html=1;rounded=0;fontStyle=1;fontSize=14;" edge="1" parent="1">
          <mxGeometry width="50" height="50" relative="1" as="geometry">
            <mxPoint x="750" y="60" as="sourcePoint" />
            <mxPoint x="810" y="60" as="targetPoint" />
          </mxGeometry>
        </mxCell>
        <mxCell id="iRvovPeUkQMw14SYtJQM-11" value="EMI滤波器" style="whiteSpace=wrap;html=1;rounded=1;fontStyle=1;fontSize=14;" vertex="1" parent="1">
          <mxGeometry x="810" y="50" width="120" height="60" as="geometry" />
        </mxCell>
        <mxCell id="iRvovPeUkQMw14SYtJQM-12" value="&lt;font style=&quot;font-size: 17px;&quot;&gt;采&lt;br style=&quot;&quot;&gt;样&lt;/font&gt;" style="rounded=0;whiteSpace=wrap;html=1;fontStyle=1;fontSize=14;" vertex="1" parent="1">
          <mxGeometry x="670" y="292" width="60" height="160" as="geometry" />
        </mxCell>
        <mxCell id="iRvovPeUkQMw14SYtJQM-13" value="&lt;font style=&quot;font-size: 18px;&quot;&gt;AD&lt;/font&gt;" style="rounded=0;whiteSpace=wrap;html=1;fontStyle=1;fontSize=14;" vertex="1" parent="1">
          <mxGeometry x="525" y="292" width="60" height="160" as="geometry" />
        </mxCell>
        <mxCell id="iRvovPeUkQMw14SYtJQM-31" value="" style="edgeStyle=orthogonalEdgeStyle;rounded=0;orthogonalLoop=1;jettySize=auto;html=1;" edge="1" parent="1" source="iRvovPeUkQMw14SYtJQM-14" target="iRvovPeUkQMw14SYtJQM-16">
          <mxGeometry relative="1" as="geometry" />
        </mxCell>
        <mxCell id="iRvovPeUkQMw14SYtJQM-14" value="PLL" style="rounded=0;whiteSpace=wrap;html=1;fontStyle=1;fontSize=14;" vertex="1" parent="1">
          <mxGeometry x="400" y="314" width="60" height="38" as="geometry" />
        </mxCell>
        <mxCell id="iRvovPeUkQMw14SYtJQM-48" style="edgeStyle=orthogonalEdgeStyle;rounded=0;orthogonalLoop=1;jettySize=auto;html=1;entryX=0.5;entryY=1;entryDx=0;entryDy=0;" edge="1" parent="1" source="iRvovPeUkQMw14SYtJQM-15" target="iRvovPeUkQMw14SYtJQM-16">
          <mxGeometry relative="1" as="geometry" />
        </mxCell>
        <mxCell id="iRvovPeUkQMw14SYtJQM-15" value="MPPT控制器" style="rounded=0;whiteSpace=wrap;html=1;fontStyle=1;fontSize=14;" vertex="1" parent="1">
          <mxGeometry x="400" y="390" width="60" height="38" as="geometry" />
        </mxCell>
        <mxCell id="iRvovPeUkQMw14SYtJQM-33" style="edgeStyle=orthogonalEdgeStyle;rounded=0;orthogonalLoop=1;jettySize=auto;html=1;entryX=0;entryY=0.333;entryDx=0;entryDy=0;entryPerimeter=0;" edge="1" parent="1" source="iRvovPeUkQMw14SYtJQM-16" target="iRvovPeUkQMw14SYtJQM-17">
          <mxGeometry relative="1" as="geometry">
            <mxPoint x="360" y="250" as="targetPoint" />
            <Array as="points">
              <mxPoint x="365" y="230" />
            </Array>
          </mxGeometry>
        </mxCell>
        <mxCell id="iRvovPeUkQMw14SYtJQM-16" value="X" style="ellipse;whiteSpace=wrap;html=1;aspect=fixed;fontStyle=1;fontSize=14;" vertex="1" parent="1">
          <mxGeometry x="350" y="318" width="30" height="30" as="geometry" />
        </mxCell>
        <mxCell id="iRvovPeUkQMw14SYtJQM-34" style="edgeStyle=orthogonalEdgeStyle;rounded=0;orthogonalLoop=1;jettySize=auto;html=1;entryX=0;entryY=0.5;entryDx=0;entryDy=0;" edge="1" parent="1" source="iRvovPeUkQMw14SYtJQM-17" target="iRvovPeUkQMw14SYtJQM-19">
          <mxGeometry relative="1" as="geometry" />
        </mxCell>
        <mxCell id="iRvovPeUkQMw14SYtJQM-17" value="∑" style="ellipse;whiteSpace=wrap;html=1;aspect=fixed;fontStyle=1;fontSize=14;" vertex="1" parent="1">
          <mxGeometry x="380" y="220" width="30" height="30" as="geometry" />
        </mxCell>
        <mxCell id="iRvovPeUkQMw14SYtJQM-38" value="" style="edgeStyle=orthogonalEdgeStyle;rounded=0;orthogonalLoop=1;jettySize=auto;html=1;" edge="1" parent="1" source="iRvovPeUkQMw14SYtJQM-19" target="iRvovPeUkQMw14SYtJQM-20">
          <mxGeometry relative="1" as="geometry" />
        </mxCell>
        <mxCell id="iRvovPeUkQMw14SYtJQM-19" value="PI电流调节" style="rounded=0;whiteSpace=wrap;html=1;fontStyle=1;fontSize=14;" vertex="1" parent="1">
          <mxGeometry x="445" y="216" width="80" height="38" as="geometry" />
        </mxCell>
        <mxCell id="iRvovPeUkQMw14SYtJQM-20" value="VCO" style="rounded=0;whiteSpace=wrap;html=1;fontStyle=1;fontSize=14;" vertex="1" parent="1">
          <mxGeometry x="440" y="150" width="90" height="40" as="geometry" />
        </mxCell>
        <mxCell id="iRvovPeUkQMw14SYtJQM-21" value="" style="edgeStyle=orthogonalEdgeStyle;rounded=0;orthogonalLoop=1;jettySize=auto;html=1;fontStyle=1;fontSize=14;" edge="1" parent="1">
          <mxGeometry relative="1" as="geometry">
            <mxPoint x="780" y="100" as="sourcePoint" />
            <mxPoint x="730" y="317.94000000000005" as="targetPoint" />
            <Array as="points">
              <mxPoint x="780" y="318" />
            </Array>
          </mxGeometry>
        </mxCell>
        <mxCell id="iRvovPeUkQMw14SYtJQM-23" value="" style="edgeStyle=orthogonalEdgeStyle;rounded=0;orthogonalLoop=1;jettySize=auto;html=1;fontStyle=1;fontSize=14;" edge="1" parent="1" source="iRvovPeUkQMw14SYtJQM-2" target="iRvovPeUkQMw14SYtJQM-3">
          <mxGeometry relative="1" as="geometry">
            <mxPoint x="330" y="80" as="sourcePoint" />
            <mxPoint x="420" y="80" as="targetPoint" />
            <Array as="points">
              <mxPoint x="450" y="80" />
            </Array>
          </mxGeometry>
        </mxCell>
        <mxCell id="iRvovPeUkQMw14SYtJQM-25" value="" style="endArrow=classic;html=1;rounded=0;entryX=1.033;entryY=0.424;entryDx=0;entryDy=0;entryPerimeter=0;" edge="1" parent="1" target="iRvovPeUkQMw14SYtJQM-12">
          <mxGeometry width="50" height="50" relative="1" as="geometry">
            <mxPoint x="770" y="360" as="sourcePoint" />
            <mxPoint x="800" y="410" as="targetPoint" />
          </mxGeometry>
        </mxCell>
        <mxCell id="iRvovPeUkQMw14SYtJQM-27" value="" style="endArrow=classic;html=1;rounded=0;entryX=1.033;entryY=0.424;entryDx=0;entryDy=0;entryPerimeter=0;" edge="1" parent="1">
          <mxGeometry width="50" height="50" relative="1" as="geometry">
            <mxPoint x="768" y="390" as="sourcePoint" />
            <mxPoint x="730" y="390" as="targetPoint" />
          </mxGeometry>
        </mxCell>
        <mxCell id="iRvovPeUkQMw14SYtJQM-28" value="" style="endArrow=classic;html=1;rounded=0;entryX=1.033;entryY=0.424;entryDx=0;entryDy=0;entryPerimeter=0;" edge="1" parent="1">
          <mxGeometry width="50" height="50" relative="1" as="geometry">
            <mxPoint x="768" y="420" as="sourcePoint" />
            <mxPoint x="730" y="420" as="targetPoint" />
          </mxGeometry>
        </mxCell>
        <mxCell id="iRvovPeUkQMw14SYtJQM-29" value="" style="endArrow=classic;html=1;rounded=0;entryX=1;entryY=0.5;entryDx=0;entryDy=0;" edge="1" parent="1" target="iRvovPeUkQMw14SYtJQM-14">
          <mxGeometry width="50" height="50" relative="1" as="geometry">
            <mxPoint x="520" y="333" as="sourcePoint" />
            <mxPoint x="472" y="332.65999999999997" as="targetPoint" />
          </mxGeometry>
        </mxCell>
        <mxCell id="iRvovPeUkQMw14SYtJQM-30" value="" style="endArrow=classic;html=1;rounded=0;entryX=1;entryY=0.5;entryDx=0;entryDy=0;" edge="1" parent="1" target="iRvovPeUkQMw14SYtJQM-15">
          <mxGeometry width="50" height="50" relative="1" as="geometry">
            <mxPoint x="520" y="410" as="sourcePoint" />
            <mxPoint x="472" y="408.66" as="targetPoint" />
          </mxGeometry>
        </mxCell>
        <mxCell id="iRvovPeUkQMw14SYtJQM-41" value="" style="endArrow=classic;html=1;rounded=0;exitX=0.222;exitY=0;exitDx=0;exitDy=0;exitPerimeter=0;" edge="1" parent="1" source="iRvovPeUkQMw14SYtJQM-20">
          <mxGeometry width="50" height="50" relative="1" as="geometry">
            <mxPoint x="410" y="180" as="sourcePoint" />
            <mxPoint x="460" y="110" as="targetPoint" />
          </mxGeometry>
        </mxCell>
        <mxCell id="iRvovPeUkQMw14SYtJQM-43" value="" style="endArrow=classic;html=1;rounded=0;exitX=0.75;exitY=0;exitDx=0;exitDy=0;entryX=0.69;entryY=0.989;entryDx=0;entryDy=0;entryPerimeter=0;" edge="1" parent="1" source="iRvovPeUkQMw14SYtJQM-20" target="iRvovPeUkQMw14SYtJQM-3">
          <mxGeometry width="50" height="50" relative="1" as="geometry">
            <mxPoint x="530" y="190" as="sourcePoint" />
            <mxPoint x="580" y="140" as="targetPoint" />
          </mxGeometry>
        </mxCell>
        <mxCell id="iRvovPeUkQMw14SYtJQM-44" value="" style="endArrow=classic;html=1;rounded=0;entryX=1.052;entryY=0.165;entryDx=0;entryDy=0;entryPerimeter=0;" edge="1" parent="1" target="iRvovPeUkQMw14SYtJQM-13">
          <mxGeometry width="50" height="50" relative="1" as="geometry">
            <mxPoint x="668" y="318" as="sourcePoint" />
            <mxPoint x="580" y="318" as="targetPoint" />
          </mxGeometry>
        </mxCell>
        <mxCell id="iRvovPeUkQMw14SYtJQM-45" value="" style="endArrow=classic;html=1;rounded=0;entryX=0.996;entryY=0.415;entryDx=0;entryDy=0;entryPerimeter=0;" edge="1" parent="1" target="iRvovPeUkQMw14SYtJQM-13">
          <mxGeometry width="50" height="50" relative="1" as="geometry">
            <mxPoint x="668" y="360" as="sourcePoint" />
            <mxPoint x="630" y="360" as="targetPoint" />
          </mxGeometry>
        </mxCell>
        <mxCell id="iRvovPeUkQMw14SYtJQM-46" value="" style="endArrow=classic;html=1;rounded=0;entryX=1.02;entryY=0.611;entryDx=0;entryDy=0;entryPerimeter=0;" edge="1" parent="1" target="iRvovPeUkQMw14SYtJQM-13">
          <mxGeometry width="50" height="50" relative="1" as="geometry">
            <mxPoint x="668" y="390" as="sourcePoint" />
            <mxPoint x="630" y="390" as="targetPoint" />
          </mxGeometry>
        </mxCell>
        <mxCell id="iRvovPeUkQMw14SYtJQM-47" value="" style="endArrow=classic;html=1;rounded=0;entryX=1.012;entryY=0.796;entryDx=0;entryDy=0;entryPerimeter=0;" edge="1" parent="1" target="iRvovPeUkQMw14SYtJQM-13">
          <mxGeometry width="50" height="50" relative="1" as="geometry">
            <mxPoint x="670" y="420" as="sourcePoint" />
            <mxPoint x="632" y="420" as="targetPoint" />
          </mxGeometry>
        </mxCell>
        <mxCell id="iRvovPeUkQMw14SYtJQM-49" value="" style="endArrow=classic;html=1;rounded=0;" edge="1" parent="1">
          <mxGeometry width="50" height="50" relative="1" as="geometry">
            <mxPoint x="370" y="410" as="sourcePoint" />
            <mxPoint x="270" y="113" as="targetPoint" />
            <Array as="points">
              <mxPoint x="330" y="410" />
              <mxPoint x="270" y="410" />
            </Array>
          </mxGeometry>
        </mxCell>
        <mxCell id="iRvovPeUkQMw14SYtJQM-50" value="" style="endArrow=classic;html=1;rounded=0;entryX=0.5;entryY=1;entryDx=0;entryDy=0;" edge="1" parent="1" target="iRvovPeUkQMw14SYtJQM-17">
          <mxGeometry width="50" height="50" relative="1" as="geometry">
            <mxPoint x="520" y="310" as="sourcePoint" />
            <mxPoint x="425" y="268" as="targetPoint" />
            <Array as="points">
              <mxPoint x="490" y="310" />
              <mxPoint x="460" y="310" />
              <mxPoint x="395" y="310" />
            </Array>
          </mxGeometry>
        </mxCell>
        <mxCell id="iRvovPeUkQMw14SYtJQM-51" value="Iac" style="text;html=1;align=center;verticalAlign=middle;resizable=0;points=[];autosize=1;strokeColor=none;fillColor=none;fontFamily=Tahoma;" vertex="1" parent="1">
          <mxGeometry x="770" y="292" width="40" height="30" as="geometry" />
        </mxCell>
        <mxCell id="iRvovPeUkQMw14SYtJQM-52" value="Vac" style="text;html=1;align=center;verticalAlign=middle;resizable=0;points=[];autosize=1;strokeColor=none;fillColor=none;fontFamily=Tahoma;" vertex="1" parent="1">
          <mxGeometry x="760" y="340" width="40" height="30" as="geometry" />
        </mxCell>
        <mxCell id="iRvovPeUkQMw14SYtJQM-53" value="Vpv" style="text;html=1;align=center;verticalAlign=middle;resizable=0;points=[];autosize=1;strokeColor=none;fillColor=none;fontFamily=Tahoma;" vertex="1" parent="1">
          <mxGeometry x="760" y="370" width="40" height="30" as="geometry" />
        </mxCell>
        <mxCell id="iRvovPeUkQMw14SYtJQM-54" value="Ipv" style="text;html=1;align=center;verticalAlign=middle;resizable=0;points=[];autosize=1;strokeColor=none;fillColor=none;fontFamily=Tahoma;" vertex="1" parent="1">
          <mxGeometry x="760" y="398" width="40" height="30" as="geometry" />
        </mxCell>
        <mxCell id="iRvovPeUkQMw14SYtJQM-55" value="Ug1" style="text;html=1;align=center;verticalAlign=middle;resizable=0;points=[];autosize=1;strokeColor=none;fillColor=none;fontFamily=Tahoma;" vertex="1" parent="1">
          <mxGeometry x="460" y="110" width="40" height="30" as="geometry" />
        </mxCell>
        <mxCell id="iRvovPeUkQMw14SYtJQM-56" value="Ug2" style="text;html=1;align=center;verticalAlign=middle;resizable=0;points=[];autosize=1;strokeColor=none;fillColor=none;fontFamily=Tahoma;" vertex="1" parent="1">
          <mxGeometry x="510" y="110" width="40" height="30" as="geometry" />
        </mxCell>
        <mxCell id="iRvovPeUkQMw14SYtJQM-57" value="Ue" style="text;html=1;align=center;verticalAlign=middle;resizable=0;points=[];autosize=1;strokeColor=none;fillColor=none;fontFamily=Tahoma;" vertex="1" parent="1">
          <mxGeometry x="490" y="186" width="40" height="30" as="geometry" />
        </mxCell>
        <mxCell id="iRvovPeUkQMw14SYtJQM-58" value="" style="endArrow=classic;html=1;rounded=0;" edge="1" parent="1">
          <mxGeometry width="50" height="50" relative="1" as="geometry">
            <mxPoint x="190" y="80" as="sourcePoint" />
            <mxPoint x="190" y="130" as="targetPoint" />
          </mxGeometry>
        </mxCell>
        <mxCell id="iRvovPeUkQMw14SYtJQM-60" value="" style="endArrow=classic;html=1;rounded=0;exitX=0.5;exitY=1;exitDx=0;exitDy=0;" edge="1" parent="1" source="17472293e6e8944d-30">
          <mxGeometry width="50" height="50" relative="1" as="geometry">
            <mxPoint x="80" y="230" as="sourcePoint" />
            <mxPoint x="110" y="160" as="targetPoint" />
          </mxGeometry>
        </mxCell>
        <mxCell id="iRvovPeUkQMw14SYtJQM-61" value="Vpv" style="text;html=1;align=center;verticalAlign=middle;resizable=0;points=[];autosize=1;strokeColor=none;fillColor=none;fontFamily=Tahoma;" vertex="1" parent="1">
          <mxGeometry x="110" y="120" width="40" height="30" as="geometry" />
        </mxCell>
        <mxCell id="iRvovPeUkQMw14SYtJQM-62" value="Ipv" style="text;html=1;align=center;verticalAlign=middle;resizable=0;points=[];autosize=1;strokeColor=none;fillColor=none;fontFamily=Tahoma;" vertex="1" parent="1">
          <mxGeometry x="190" y="105" width="40" height="30" as="geometry" />
        </mxCell>
        <mxCell id="iRvovPeUkQMw14SYtJQM-63" value="&lt;b&gt;&lt;font style=&quot;font-size: 14px;&quot;&gt;+&lt;/font&gt;&lt;/b&gt;" style="text;html=1;align=center;verticalAlign=middle;resizable=0;points=[];autosize=1;strokeColor=none;fillColor=none;" vertex="1" parent="1">
          <mxGeometry x="335" y="215" width="30" height="30" as="geometry" />
        </mxCell>
        <mxCell id="iRvovPeUkQMw14SYtJQM-64" value="&lt;b&gt;&lt;font style=&quot;font-size: 14px;&quot;&gt;-&lt;/font&gt;&lt;/b&gt;" style="text;html=1;align=center;verticalAlign=middle;resizable=0;points=[];autosize=1;strokeColor=none;fillColor=none;" vertex="1" parent="1">
          <mxGeometry x="395" y="235" width="30" height="30" as="geometry" />
        </mxCell>
        <mxCell id="iRvovPeUkQMw14SYtJQM-65" value="" style="endArrow=none;dashed=1;html=1;dashPattern=1 3;strokeWidth=4;rounded=0;" edge="1" parent="1">
          <mxGeometry width="50" height="50" relative="1" as="geometry">
            <mxPoint x="200" y="140" as="sourcePoint" />
            <mxPoint x="850" y="140" as="targetPoint" />
          </mxGeometry>
        </mxCell>
        <mxCell id="iRvovPeUkQMw14SYtJQM-66" value="" style="endArrow=none;dashed=1;html=1;dashPattern=1 3;strokeWidth=4;rounded=0;" edge="1" parent="1">
          <mxGeometry width="50" height="50" relative="1" as="geometry">
            <mxPoint x="200" y="470" as="sourcePoint" />
            <mxPoint x="850" y="470" as="targetPoint" />
          </mxGeometry>
        </mxCell>
        <mxCell id="iRvovPeUkQMw14SYtJQM-67" value="" style="endArrow=none;dashed=1;html=1;dashPattern=1 3;strokeWidth=4;rounded=0;" edge="1" parent="1">
          <mxGeometry width="50" height="50" relative="1" as="geometry">
            <mxPoint x="850" y="460" as="sourcePoint" />
            <mxPoint x="850" y="140" as="targetPoint" />
          </mxGeometry>
        </mxCell>
        <mxCell id="iRvovPeUkQMw14SYtJQM-68" value="" style="endArrow=none;dashed=1;html=1;dashPattern=1 3;strokeWidth=4;rounded=0;" edge="1" parent="1">
          <mxGeometry width="50" height="50" relative="1" as="geometry">
            <mxPoint x="190" y="460" as="sourcePoint" />
            <mxPoint x="190" y="140" as="targetPoint" />
          </mxGeometry>
        </mxCell>
      </root>
    </mxGraphModel>
  </diagram>
</mxfile>
